Coordinates
version=1
nRows=65
nColumns=12
inDegrees=yes

Units are S.I. units (second, meters, Newtons, ...)
Angles are in degrees

endheader
time	SC_y	SC_z	SC_x	AC_y	AC_z	AC_x	GH_y	GH_z	GH_yy	EL_x	PS_y
       0.0              -14.64          -1.61          1.902          69.42         -10.25          5.645          68.31          51.12          37.69           42.8          114.3
   0.03434              -14.64         -1.606          1.906          69.42         -10.25          5.643          68.28          51.11           37.7           42.8          114.3
   0.06868              -14.65         -1.601           1.91          69.42         -10.25          5.641          68.26           51.1          37.71           42.8          114.3
     0.103              -14.65         -1.596          1.915          69.41         -10.25          5.639          68.23          51.09          37.72           42.8          114.3
    0.1374              -14.66         -1.591           1.92          69.41         -10.25          5.637          68.21          51.08          37.73          42.81          114.3
    0.1717              -14.66         -1.586          1.925          69.41         -10.25          5.635          68.18          51.07          37.74          42.81          114.3
     0.206              -14.67          -1.58           1.93           69.4         -10.25          5.632          68.15          51.06          37.75          42.81          114.3
    0.2404              -14.67         -1.573          1.936           69.4         -10.25          5.629          68.12          51.05          37.77          42.82          114.3
    0.2747              -14.68         -1.567          1.943          69.39         -10.24          5.627          68.08          51.04          37.78          42.82          114.3
    0.3091              -14.68         -1.559          1.949          69.39         -10.24          5.623          68.04          51.02           37.8          42.83          114.3
    0.3434              -14.69         -1.552          1.957          69.38         -10.24           5.62           68.0          51.01          37.82          42.83          114.3
    0.3777               -14.7         -1.543          1.964          69.38         -10.24          5.617          67.96          50.99          37.84          42.84          114.3
    0.4121               -14.7         -1.534          1.973          69.37         -10.24          5.613          67.91          50.98          37.86          42.84          114.3
    0.4464              -14.71         -1.524          1.982          69.37         -10.24          5.608          67.86          50.96          37.88          42.85          114.3
    0.4808              -14.72         -1.514          1.992          69.36         -10.24          5.604          67.81          50.94           37.9          42.85          114.3
    0.5151              -14.73         -1.502          2.003          69.35         -10.24          5.599          67.75          50.92          37.93          42.86          114.3
    0.5494              -14.74          -1.49          2.014          69.35         -10.24          5.594          67.68          50.89          37.96          42.87          114.3
    0.5838              -14.75         -1.476          2.027          69.34         -10.24          5.588          67.61          50.87          37.99          42.88          114.3
    0.6181              -14.77         -1.461          2.041          69.33         -10.24          5.581          67.53          50.84          38.02          42.89          114.3
    0.6524              -14.78         -1.445          2.056          69.32         -10.24          5.574          67.45          50.81          38.06           42.9          114.3
    0.6868              -14.79         -1.427          2.072           69.3         -10.24          5.567          67.36          50.78           38.1          42.91          114.3
    0.7211              -14.81         -1.407          2.091          69.29         -10.23          5.558          67.25          50.74          38.14          42.92          114.3
    0.7555              -14.83         -1.386          2.111          69.28         -10.23          5.549          67.14           50.7          38.19          42.93          114.3
    0.7898              -14.85         -1.361          2.133          69.26         -10.23          5.539          67.02          50.65          38.24          42.95          114.3
    0.8241              -14.87         -1.335          2.158          69.25         -10.23          5.527          66.88           50.6           38.3          42.96          114.3
    0.8585               -14.9         -1.305          2.186          69.23         -10.23          5.515          66.72          50.55          38.37          42.98          114.3
    0.8928              -14.93         -1.271          2.217           69.2         -10.23            5.5          66.55          50.48          38.45           43.0          114.3
    0.9272              -14.96         -1.234          2.252          69.18         -10.22          5.484          66.35          50.41          38.53          43.02          114.4
    0.9615              -14.99         -1.191          2.292          69.15         -10.22          5.466          66.13          50.33          38.62          43.05          114.4
    0.9958              -15.03         -1.143          2.337          69.12         -10.22          5.445          65.88          50.24          38.73          43.08          114.4
      1.03              -15.08         -1.088          2.388          69.09         -10.21          5.422           65.6          50.14          38.86          43.11          114.4
     1.065              -15.13         -1.024          2.447          69.05         -10.21          5.395          65.27          50.02           39.0          43.15          114.4
     1.099              -15.19        -0.9514          2.515           69.0          -10.2          5.363          64.89          49.89          39.16           43.2          114.4
     1.133              -15.27        -0.8666          2.594          68.94          -10.2          5.327          64.45          49.73          39.35          43.25          114.4
     1.168              -15.35        -0.7673          2.686          68.88         -10.19          5.285          63.94          49.54          39.57          43.31          114.5
     1.202              -15.45        -0.6502          2.795           68.8         -10.18          5.234          63.33          49.32          39.84          43.38          114.5
     1.236              -15.57        -0.5111          2.924          68.72         -10.18          5.175          62.61          49.06          40.15          43.46          114.5
     1.271              -15.71        -0.3444          3.079          68.61         -10.16          5.104          61.74          48.75          40.52          43.57          114.5
     1.305              -15.88        -0.1426          3.267          68.48         -10.15          5.017           60.7          48.37          40.97          43.69          114.6
     1.339              -16.08         0.1038          3.496          68.32         -10.13          4.912          59.42          47.91          41.53          43.84          114.6
     1.374              -16.34          0.408          3.779          68.12         -10.11          4.782          57.84          47.34          42.21          44.02          114.7
     1.408              -16.66         0.7873          4.132          67.88         -10.09          4.619          55.88          46.64          43.06          44.25          114.8
     1.442              -17.06          1.265          4.576          67.57         -10.06          4.415           53.4          45.74          44.13          44.54          114.9
     1.477              -17.57          1.872          5.141          67.18         -10.02          4.155          50.25          44.61          45.49          44.91          115.0
     1.511              -18.22           2.65          5.865          66.68         -9.967          3.823          46.22          43.15          47.23          45.39          115.2
     1.545              -19.06          3.647          6.793          66.04         -9.901          3.396          41.05          41.29          49.46          45.99          115.4
      1.58              -20.14          4.922          7.978          65.22         -9.817           2.85          34.44          38.91          52.32          46.77          115.7
     1.614              -21.48          6.524          9.468          64.19         -9.712          2.165          26.14          35.91          55.91          47.74          116.1
     1.648              -23.13          8.477          11.28          62.93         -9.583          1.329          16.01          32.26          60.28          48.93          116.5
     1.683              -25.03          10.74          13.39          61.47         -9.434          0.361          4.281          28.03          65.35          50.31          117.0
     1.717              -27.09          13.19          15.67           59.9         -9.273        -0.6876         -8.424          23.45          70.84           51.8          117.5
     1.751              -29.15          15.64          17.95          58.32         -9.112         -1.736         -21.13          18.87          76.33          53.29          118.0
     1.786              -31.06          17.91          20.05          56.86         -8.962         -2.705         -32.86          14.63           81.4          54.66          118.5
      1.82               -32.7          19.86          21.87          55.61         -8.834          -3.54         -42.98          10.98          85.78          55.85          119.0
     1.854              -34.05          21.46          23.36          54.58         -8.728         -4.226         -51.29          7.988          89.37          56.83          119.3
     1.889              -35.12          22.73          24.55          53.76         -8.644         -4.771          -57.9          5.605          92.22           57.6          119.6
     1.923              -35.96          23.73          25.47          53.11         -8.579         -5.198         -63.07           3.74          94.46          58.21          119.8
     1.957              -36.61          24.51           26.2          52.61         -8.528          -5.53          -67.1          2.287           96.2          58.68          120.0
     1.992              -37.12          25.12          26.76          52.22         -8.488          -5.79         -70.25          1.151          97.56          59.05          120.1
     2.026              -37.52          25.59          27.21          51.92         -8.456         -5.995         -72.73         0.2581          98.63          59.34          120.2
      2.06              -37.84          25.97          27.56          51.67         -8.431         -6.157         -74.69         -0.451          99.48          59.57          120.3
     2.095               -38.1          26.28          27.84          51.48         -8.411         -6.287         -76.27          -1.02          100.2          59.76          120.4
     2.129              -38.31          26.52          28.07          51.32         -8.395         -6.393         -77.55          -1.48          100.7          59.91          120.4
     2.163              -38.48          26.73          28.26          51.19         -8.382         -6.479         -78.59         -1.857          101.2          60.03          120.5
     2.198              -38.62          26.89          28.41          51.08         -8.371          -6.55         -79.46         -2.169          101.5          60.13          120.5
